<svg height="512pt" viewBox="-118 0 512 512" width="512pt" xmlns="http://www.w3.org/2000/svg"><path d="m55.222656 202.324219c-29.59375 0-53.675781-24.082031-53.675781-53.679688 0-29.59375 24.082031-53.675781 53.675781-53.675781 29.597656 0 53.679688 24.082031 53.679688 53.675781 0 29.597657-24.082032 53.679688-53.679688 53.679688zm0-82.582031c-15.933594 0-28.902344 12.96875-28.902344 28.902343 0 15.933594 12.96875 28.902344 28.902344 28.902344 15.9375 0 28.90625-12.96875 28.90625-28.902344 0-15.933593-12.96875-28.902343-28.90625-28.902343zm0 0" fill="#ffa95f"/><path d="m80 101.035156v20.082032c0 3.472656-.710938 6.667968-2.03125 9.71875 3.832031 4.902343 6.160156 11.121093 6.160156 17.808593 0 15.933594-12.96875 28.902344-28.90625 28.902344-11.917968 0-22.179687-7.253906-26.59375-17.582031-7.367187 4.300781-14.03125 9.597656-19.8125 15.632812 9.308594 15.972656 26.625 26.722656 46.40625 26.722656 29.597656 0 53.679688-24.078124 53.679688-53.675781 0-20.660156-11.753906-38.640625-28.902344-47.609375zm0 0" fill="#ff8b5a"/><path d="m160.261719 0h-44.914063c-5.371094 0-9.3125 5.050781-8.011718 10.261719l5.695312 22.769531h49.546875l5.691406-22.769531c1.304688-5.210938-2.636719-10.261719-8.007812-10.261719zm0 0" fill="#e2a975"/><path d="m229.871094 169.800781-25.367188-10.570312c-15.386718-6.410157-25.410156-21.445313-25.410156-38.113281v-55.050782h-82.578125v55.050782c0 16.667968-10.023437 31.703124-25.410156 38.113281l-25.367188 10.570312c-28.980469 12.078125-47.246093 41.058594-45.6406248 72.414063l12.2304688 238.445312c.898437 17.5625 15.402344 31.339844 32.988281 31.339844h184.976563c17.585937 0 32.089843-13.777344 32.988281-31.339844l12.230469-238.445312c1.609375-31.355469-16.660157-60.335938-45.640625-72.414063zm0 0" fill="#ffc269"/><path d="m179.09375 66.066406h-82.578125v55.050782c0 16.667968-10.023437 31.703124-25.410156 38.117187l-25.367188 10.566406c-28.980469 12.078125-47.25 41.058594-45.6406248 72.414063l12.2304688 238.445312c.898437 17.5625 15.402344 31.339844 32.988281 31.339844h33.101563l-6.632813-269.785156c-.769531-31.355469 7.988282-60.335938 21.882813-72.414063l12.160156-10.570312c7.375-6.410157 12.179687-21.445313 12.179687-38.113281v-22.019532c0-9.121094 7.394532-16.515625 16.515626-16.515625h44.570312zm0 0" fill="#ffa95f"/><path d="m179.09375 66.066406h-82.578125c-4.5625 0-8.257813-3.699218-8.257813-8.257812v-16.519532c0-4.558593 3.695313-8.257812 8.257813-8.257812h82.578125c4.5625 0 8.257812 3.699219 8.257812 8.257812v16.515626c0 4.5625-3.695312 8.261718-8.257812 8.261718zm0 0" fill="#ffc269"/><path d="m203.871094 247.742188h-132.132813c-13.679687 0-24.773437 11.09375-24.773437 24.773437v115.613281c0 13.683594 11.09375 24.773438 24.773437 24.773438h132.132813c13.679687 0 24.773437-11.089844 24.773437-24.773438v-115.613281c0-13.679687-11.09375-24.773437-24.773437-24.773437zm0 0" fill="#ffe09f"/><path d="m137.636719 310.136719c-4.542969 0-8.21875-3.660157-8.257813-8.183594-.007812-.308594-.316406-7.9375-5.945312-14.136719-3.066406-3.378906-2.816406-8.597656.566406-11.664062 3.378906-3.054688 8.585938-2.820313 11.660156.566406 9.941406 10.953125 10.234375 23.742188 10.234375 25.160156 0 4.566406-3.695312 8.257813-8.257812 8.257813zm0 0" fill="#966a5b"/><path d="m161.273438 297.289062c-10.429688 0-13.039063 4.46875-23.46875 4.46875-10.433594 0-13.039063-4.46875-23.46875-4.46875-10.433594 0-26.078126 6.347657-26.078126 23.277344 0 17.058594 15.644532 57.132813 33.898438 57.132813 7.824219 0 10.433594-2.117188 15.648438-2.117188 5.214843 0 7.824218 2.117188 15.648437 2.117188 18.253906 0 33.902344-40.074219 33.902344-57.132813-.003907-16.929687-15.648438-23.277344-26.082031-23.277344zm0 0" fill="#e5646e"/><path d="m187.351562 49.546875h-57.804687c-9.121094 0-16.515625-7.394531-16.515625-16.515625h66.066406c4.558594 0 8.257813 3.699219 8.257813 8.257812v8.257813zm0 0" fill="#ffe07d"/><path d="m137.804688 16.515625c-9.121094 0-16.515626-7.394531-16.515626-16.515625h-5.941406c-5.371094 0-9.316406 5.050781-8.011718 10.261719l5.691406 22.769531h49.550781l4.128906-16.515625zm0 0" fill="#d19a6e"/><path d="m71.921875 247.742188h-.183594c-13.679687 0-24.773437 11.09375-24.773437 24.773437v115.613281c0 13.683594 11.09375 24.773438 24.773437 24.773438h4.246094zm0 0" fill="#f6d190"/><path d="m105.558594 323.300781c-2.003906-12.816406 3.980468-21.261719 11.210937-25.921875-.773437-.058594-1.558593-.089844-2.433593-.089844-10.433594 0-26.078126 6.351563-26.078126 23.277344 0 17.058594 15.644532 57.132813 33.898438 57.132813 5.851562 0 8.785156-1.183594 12.074219-1.777344-13.75-12.011719-26.476563-38.59375-28.671875-52.621094zm0 0" fill="#db4655"/></svg>